<svg width="433" height="399" viewBox="0 0 433 399" fill="none" xmlns="http://www.w3.org/2000/svg">
<g clip-path="url(#clip0)">
<g opacity="0.6">
<path opacity="0.3" d="M274.601 254.143V204.398L231.514 179.535L188.436 204.398V254.143L231.514 279.015L274.601 254.143Z" stroke="white" stroke-miterlimit="10"/>
<path opacity="0.3" d="M231.514 179.839V130.094L188.436 105.221L145.349 130.094V179.839L188.436 204.702L231.514 179.839Z" stroke="white" stroke-miterlimit="10"/>
<path opacity="0.3" d="M145.349 130.103V80.3582L102.271 55.4858L59.1837 80.3582V130.103L102.271 154.966L145.349 130.103Z" stroke="white" stroke-miterlimit="10"/>
<path opacity="0.3" d="M145.349 229.574V179.839L102.271 154.966L59.1837 179.839V229.574L102.271 254.447L145.349 229.574Z" stroke="white" stroke-miterlimit="10"/>
<path opacity="0.3" d="M102.271 154.662V104.917L59.1837 80.0449L16.1057 104.917V154.662L59.1837 179.535L102.271 154.662Z" stroke="white" stroke-miterlimit="10"/>
<path opacity="0.3" d="M59.1838 130.103V80.3582L16.1058 55.4858L-26.9814 80.3582V130.103L16.1058 154.966L59.1838 130.103Z" stroke="white" stroke-miterlimit="10"/>
<path opacity="0.3" d="M102.271 204.398V154.662L59.1837 129.79L16.1057 154.662V204.398L59.1837 229.27L102.271 204.398Z" stroke="white" stroke-miterlimit="10"/>
<path opacity="0.3" d="M274.601 55.7807V6.04508L231.514 -18.8273L188.436 6.04508V55.7807L231.514 80.6531L274.601 55.7807Z" stroke="white" stroke-miterlimit="10"/>
<path opacity="0.3" d="M231.514 80.3582V30.6134L188.436 5.74097L145.349 30.6134V80.3582L188.436 105.231L231.514 80.3582Z" stroke="white" stroke-miterlimit="10"/>
<path opacity="0.3" d="M188.436 55.1725V5.43687L145.349 -19.4355L102.271 5.43687V55.1725L145.349 80.0449L188.436 55.1725Z" stroke="white" stroke-miterlimit="10"/>
<path opacity="0.3" d="M188.436 154.662V104.917L145.349 80.0449L102.271 104.917V154.662L145.349 179.535L188.436 154.662Z" stroke="white" stroke-miterlimit="10"/>
<path opacity="0.3" d="M59.1838 229.574V179.839L16.1058 154.966L-26.9814 179.839V229.574L16.1058 254.447L59.1838 229.574Z" stroke="white" stroke-miterlimit="10"/>
<path opacity="0.3" d="M16.1057 254.143V204.398L-26.9815 179.535L-70.0594 204.398V254.143L-26.9815 279.015L16.1057 254.143Z" stroke="white" stroke-miterlimit="10"/>
<path opacity="0.3" d="M231.514 279.319V229.574L188.436 204.702L145.349 229.574V279.319L188.436 304.192L231.514 279.319Z" stroke="white" stroke-miterlimit="10"/>
<path opacity="0.3" d="M145.349 279.319V229.574L102.271 204.702L59.1837 229.574V279.319L102.271 304.192L145.349 279.319Z" stroke="white" stroke-miterlimit="10"/>
<path opacity="0.3" d="M317.679 329.064V279.319L274.601 254.447L231.514 279.319V329.064L274.601 353.927L317.679 329.064Z" stroke="white" stroke-miterlimit="10"/>
<path opacity="0.3" d="M274.601 353.623V303.887L231.514 279.015L188.436 303.887V353.623L231.514 378.495L274.601 353.623Z" stroke="white" stroke-miterlimit="10"/>
<path opacity="0.3" d="M317.679 229.574V179.839L274.601 154.966L231.514 179.839V229.574L274.601 254.447L317.679 229.574Z" stroke="white" stroke-miterlimit="10"/>
<path opacity="0.3" d="M360.766 154.662V104.917L317.679 80.0449L274.601 104.917V154.662L317.679 179.535L360.766 154.662Z" stroke="white" stroke-miterlimit="10"/>
<path opacity="0.3" d="M317.679 179.839V130.094L274.601 105.221L231.514 130.094V179.839L274.601 204.702L317.679 179.839Z" stroke="white" stroke-miterlimit="10"/>
<path opacity="0.3" d="M231.514 329.064V279.319L188.436 254.447L145.349 279.319V329.064L188.436 353.927L231.514 329.064Z" stroke="white" stroke-miterlimit="10"/>
</g>
</g>
<defs>
<clipPath id="clip0">
<rect x="-128" width="561" height="399" fill="white"/>
</clipPath>
</defs>
</svg>
