<svg width="22" height="22" viewBox="0 0 22 22" fill="none" xmlns="http://www.w3.org/2000/svg">
<g clip-path="url(#clip0)">
<path d="M14.7692 21.6082C14.6621 21.6468 14.5543 21.6935 14.4441 21.7128C14.0217 21.7882 13.7514 21.5702 13.7489 21.1385C13.7433 20.3368 13.7433 19.5364 13.7564 18.7347C13.7701 17.8128 13.7489 16.9027 13.0469 16.1421C13.4642 16.0674 13.8355 16.0151 14.1987 15.9316C16.6043 15.3791 17.8539 13.8617 18.0134 11.3432C18.095 10.0613 17.8664 8.88521 17.0142 7.87547C16.9525 7.80446 16.9494 7.64313 16.9787 7.53973C17.2055 6.70502 17.1394 5.88963 16.8753 5.07362C16.8099 4.86993 16.7015 4.80701 16.5003 4.82009C15.7939 4.85934 15.1467 5.10725 14.5761 5.48848C14.0261 5.85786 13.5141 5.93822 12.8606 5.78872C11.4217 5.46418 9.97345 5.55887 8.53763 5.8915C8.37505 5.93012 8.15641 5.87842 8.00754 5.79121C7.33355 5.39629 6.65955 5.01257 5.88216 4.85934C5.28105 4.74223 5.22873 4.77213 5.06926 5.3533C4.86868 6.08585 4.84875 6.81902 5.05369 7.55592C5.08297 7.66306 5.05244 7.83499 4.98081 7.9141C3.38802 9.69126 3.96484 13.0494 5.03812 14.3357C5.87282 15.3348 6.9816 15.7846 8.21247 16.0182C8.42738 16.058 8.64104 16.0886 8.85594 16.1259C8.67156 16.6056 8.50587 17.0584 8.31837 17.5038C8.28162 17.5898 8.16513 17.662 8.06983 17.6982C6.86262 18.1666 5.82485 17.8221 5.13404 16.7264C4.76466 16.1421 4.29062 15.7055 3.58424 15.579C3.56181 15.5747 3.53877 15.5628 3.51821 15.5659C3.32822 15.6158 3.1401 15.6681 2.95074 15.7192C3.05726 15.8674 3.13263 16.0668 3.27528 16.1558C3.87389 16.5346 4.26321 17.0746 4.52048 17.7119C4.92475 18.711 5.70961 19.1564 6.72932 19.2436C7.22703 19.2841 7.72972 19.2498 8.27477 19.2498C8.27477 19.8703 8.29719 20.5785 8.26542 21.2837C8.24923 21.6636 7.86738 21.8156 7.41016 21.6599C6.19735 21.245 5.073 20.6502 4.10188 19.8142C0.595509 16.7937 -0.75621 12.9753 0.409258 8.50586C1.57099 4.0508 4.59896 1.31808 9.12629 0.460332C15.3909 -0.724446 21.3254 3.83776 21.9471 10.1971C22.4379 15.2103 19.4872 19.9014 14.7692 21.6082ZM8.86342 16.1023C8.85968 16.111 8.85719 16.1172 8.85345 16.1259C8.86466 16.1278 8.87588 16.1297 8.88771 16.1315C8.89643 16.1322 8.90391 16.1477 8.86342 16.1023ZM6.02917 18.0838C6.12697 18.1442 6.2204 18.2208 6.3263 18.2538C6.36492 18.2663 6.43655 18.1784 6.563 18.085C6.38734 18.0183 6.28394 17.9598 6.17493 17.9448C6.13257 17.9399 6.07776 18.0352 6.02917 18.0838ZM6.9218 18.237C6.93613 18.3024 7.06632 18.384 7.14293 18.3827C7.21706 18.3815 7.28932 18.2831 7.36345 18.227C7.29617 18.1654 7.2289 18.1056 7.02209 17.9193C6.97724 18.0489 6.90311 18.1535 6.9218 18.237ZM8.01688 17.9735C7.92469 17.9953 7.84683 18.0806 7.76273 18.1392C7.81194 18.2015 7.86115 18.2594 7.94026 18.3572C8.04927 18.2575 8.1234 18.1884 8.19815 18.1211C8.13586 18.0669 8.06298 17.9623 8.01688 17.9735ZM5.30223 17.6041C5.35331 17.7007 5.43242 17.7841 5.53956 17.9205C5.61119 17.8034 5.68906 17.7137 5.67535 17.6957C5.60746 17.6066 5.51527 17.5337 5.42432 17.4671C5.41809 17.4621 5.29164 17.5829 5.30223 17.6041Z" fill="#6C7B95"/>
</g>
<defs>
<clipPath id="clip0">
<path d="M0 0H22V22H0V0Z" fill="white"/>
</clipPath>
</defs>
</svg>
