<?xml version="1.0" encoding="UTF-8" standalone="no"?><svg xmlns="http://www.w3.org/2000/svg" xmlns:xlink="http://www.w3.org/1999/xlink" contentStyleType="text/css" height="570px" preserveAspectRatio="none" style="width:752px;height:570px;background:#FFFFFF;" version="1.1" viewBox="0 0 752 570" width="752px" zoomAndPan="magnify"><defs/><g><ellipse cx="367" cy="20" fill="#222222" rx="10" ry="10" style="stroke:#222222;stroke-width:1.0;"/><rect fill="#FFFF00" height="35.0938" style="stroke:#181818;stroke-width:0.5;" width="167" x="283.5" y="94"/><text fill="#000000" font-family="sans-serif" font-size="12" lengthAdjust="spacing" textLength="147" x="293.5" y="116.457">Inhibitor added or modified</text><polygon fill="#F1F1F1" points="32,149.0938,185,149.0938,197,161.0938,185,173.0938,32,173.0938,20,161.0938,32,149.0938" style="stroke:#181818;stroke-width:0.5;"/><text fill="#000000" font-family="sans-serif" font-size="11" lengthAdjust="spacing" textLength="12" x="112.5" y="184.5127">no</text><text fill="#000000" font-family="sans-serif" font-size="11" lengthAdjust="spacing" textLength="153" x="32" y="165.5947">spec.schedule is a valid RRule?</text><polygon fill="#F1F1F1" points="229,149.0938,399,149.0938,411,161.0938,399,173.0938,229,173.0938,217,161.0938,229,149.0938" style="stroke:#181818;stroke-width:0.5;"/><text fill="#000000" font-family="sans-serif" font-size="11" lengthAdjust="spacing" textLength="12" x="318" y="184.5127">no</text><text fill="#000000" font-family="sans-serif" font-size="11" lengthAdjust="spacing" textLength="170" x="229" y="165.5947">spec.duration is a valid time range?</text><polygon fill="#F1F1F1" points="443,149.0938,571,149.0938,583,161.0938,571,173.0938,443,173.0938,431,161.0938,443,149.0938" style="stroke:#181818;stroke-width:0.5;"/><text fill="#000000" font-family="sans-serif" font-size="11" lengthAdjust="spacing" textLength="12" x="511" y="184.5127">no</text><text fill="#000000" font-family="sans-serif" font-size="11" lengthAdjust="spacing" textLength="128" x="443" y="165.5947">status.phase == Accepted</text><text fill="#000000" font-family="sans-serif" font-size="11" lengthAdjust="spacing" textLength="18" x="583" y="158.6768">yes</text><polygon fill="#98FB98" points="603,188.5527,704,188.5527,714,206.0996,704,223.6465,603,223.6465" style="stroke:#181818;stroke-width:0.5;"/><text fill="#000000" font-family="sans-serif" font-size="12" lengthAdjust="spacing" textLength="81" x="618" y="211.0098">Store in Cache</text><ellipse cx="653.5" cy="254.6465" rx="11" ry="11" style="stroke:#222222;stroke-width:1.0;fill:none;"/><ellipse cx="653.5" cy="254.6465" fill="#222222" rx="6" ry="6" style="stroke:#111111;stroke-width:1.0;"/><rect fill="#FFC0CB" height="35.0938" style="stroke:#181818;stroke-width:0.5;" width="183" x="275.5" y="315.6875"/><line style="stroke:#181818;stroke-width:0.5;" x1="280.5" x2="280.5" y1="315.6875" y2="350.7813"/><line style="stroke:#181818;stroke-width:0.5;" x1="453.5" x2="453.5" y1="315.6875" y2="350.7813"/><text fill="#000000" font-family="sans-serif" font-size="12" lengthAdjust="spacing" textLength="163" x="285.5" y="338.1445">update status.failureReasons</text><polygon fill="#F1F1F1" points="183,370.7813,306,370.7813,318,382.7813,306,394.7813,183,394.7813,171,382.7813,183,370.7813" style="stroke:#181818;stroke-width:0.5;"/><text fill="#000000" font-family="sans-serif" font-size="11" lengthAdjust="spacing" textLength="12" x="248.5" y="406.2002">no</text><text fill="#000000" font-family="sans-serif" font-size="11" lengthAdjust="spacing" textLength="123" x="183" y="387.2822">status.phase == Rejected</text><polygon fill="#F1F1F1" points="350,370.7813,501,370.7813,513,382.7813,501,394.7813,350,394.7813,338,382.7813,350,370.7813" style="stroke:#181818;stroke-width:0.5;"/><text fill="#000000" font-family="sans-serif" font-size="11" lengthAdjust="spacing" textLength="18" x="429.5" y="406.2002">yes</text><text fill="#000000" font-family="sans-serif" font-size="11" lengthAdjust="spacing" textLength="151" x="350" y="387.2822">status.failureReasons changed</text><text fill="#000000" font-family="sans-serif" font-size="11" lengthAdjust="spacing" textLength="12" x="513" y="380.3643">no</text><ellipse cx="548" cy="424.6992" rx="11" ry="11" style="stroke:#222222;stroke-width:1.0;fill:none;"/><ellipse cx="548" cy="424.6992" fill="#222222" rx="6" ry="6" style="stroke:#111111;stroke-width:1.0;"/><rect fill="#FFC0CB" height="35.0938" style="stroke:#181818;stroke-width:0.5;" width="133" x="300.5" y="475.6992"/><line style="stroke:#181818;stroke-width:0.5;" x1="305.5" x2="305.5" y1="475.6992" y2="510.793"/><line style="stroke:#181818;stroke-width:0.5;" x1="428.5" x2="428.5" y1="475.6992" y2="510.793"/><text fill="#000000" font-family="sans-serif" font-size="12" lengthAdjust="spacing" textLength="113" x="310.5" y="498.1563">update status.phase</text><polygon fill="#F1F1F1" points="367,50,379,62,367,74,355,62,367,50" style="stroke:#181818;stroke-width:0.5;"/><line style="stroke:#181818;stroke-width:1.0;" x1="653.5" x2="653.5" y1="223.6465" y2="243.6465"/><polygon fill="#181818" points="649.5,233.6465,653.5,243.6465,657.5,233.6465,653.5,237.6465" style="stroke:#181818;stroke-width:1.0;"/><line style="stroke:#181818;stroke-width:1.0;" x1="108.5" x2="108.5" y1="173.0938" y2="285.6465"/><polygon fill="#181818" points="104.5,275.6465,108.5,285.6465,112.5,275.6465,108.5,279.6465" style="stroke:#181818;stroke-width:1.0;"/><line style="stroke:#181818;stroke-width:1.0;" x1="314" x2="314" y1="173.0938" y2="285.6465"/><polygon fill="#181818" points="310,275.6465,314,285.6465,318,275.6465,314,279.6465" style="stroke:#181818;stroke-width:1.0;"/><line style="stroke:#181818;stroke-width:1.0;" x1="507" x2="507" y1="173.0938" y2="285.6465"/><polygon fill="#181818" points="503,275.6465,507,285.6465,511,275.6465,507,279.6465" style="stroke:#181818;stroke-width:1.0;"/><line style="stroke:#181818;stroke-width:1.0;" x1="197" x2="217" y1="161.0938" y2="161.0938"/><polygon fill="#181818" points="207,157.0938,217,161.0938,207,165.0938,211,161.0938" style="stroke:#181818;stroke-width:1.0;"/><line style="stroke:#181818;stroke-width:1.0;" x1="411" x2="431" y1="161.0938" y2="161.0938"/><polygon fill="#181818" points="421,157.0938,431,161.0938,421,165.0938,425,161.0938" style="stroke:#181818;stroke-width:1.0;"/><line style="stroke:#181818;stroke-width:1.0;" x1="367" x2="367" y1="129.0938" y2="134.0938"/><line style="stroke:#181818;stroke-width:1.0;" x1="367" x2="108.5" y1="134.0938" y2="134.0938"/><line style="stroke:#181818;stroke-width:1.0;" x1="108.5" x2="108.5" y1="134.0938" y2="149.0938"/><polygon fill="#181818" points="104.5,139.0938,108.5,149.0938,112.5,139.0938,108.5,143.0938" style="stroke:#181818;stroke-width:1.0;"/><line style="stroke:#181818;stroke-width:1.0;" x1="583" x2="653.5" y1="161.0938" y2="161.0938"/><line style="stroke:#181818;stroke-width:1.0;" x1="653.5" x2="653.5" y1="161.0938" y2="188.5527"/><polygon fill="#181818" points="649.5,178.5527,653.5,188.5527,657.5,178.5527,653.5,182.5527" style="stroke:#181818;stroke-width:1.0;"/><line style="stroke:#181818;stroke-width:1.0;" x1="108.5" x2="507" y1="285.6465" y2="285.6465"/><line style="stroke:#181818;stroke-width:1.0;" x1="367" x2="367" y1="285.6465" y2="315.6875"/><polygon fill="#181818" points="363,305.6875,367,315.6875,371,305.6875,367,309.6875" style="stroke:#181818;stroke-width:1.0;"/><line style="stroke:#181818;stroke-width:1.0;" x1="244.5" x2="244.5" y1="394.7813" y2="455.6992"/><polygon fill="#181818" points="240.5,445.6992,244.5,455.6992,248.5,445.6992,244.5,449.6992" style="stroke:#181818;stroke-width:1.0;"/><line style="stroke:#181818;stroke-width:1.0;" x1="425.5" x2="425.5" y1="394.7813" y2="455.6992"/><polygon fill="#181818" points="421.5,445.6992,425.5,455.6992,429.5,445.6992,425.5,449.6992" style="stroke:#181818;stroke-width:1.0;"/><line style="stroke:#181818;stroke-width:1.0;" x1="318" x2="338" y1="382.7813" y2="382.7813"/><polygon fill="#181818" points="328,378.7813,338,382.7813,328,386.7813,332,382.7813" style="stroke:#181818;stroke-width:1.0;"/><line style="stroke:#181818;stroke-width:1.0;" x1="367" x2="367" y1="350.7813" y2="355.7813"/><line style="stroke:#181818;stroke-width:1.0;" x1="367" x2="244.5" y1="355.7813" y2="355.7813"/><line style="stroke:#181818;stroke-width:1.0;" x1="244.5" x2="244.5" y1="355.7813" y2="370.7813"/><polygon fill="#181818" points="240.5,360.7813,244.5,370.7813,248.5,360.7813,244.5,364.7813" style="stroke:#181818;stroke-width:1.0;"/><line style="stroke:#181818;stroke-width:1.0;" x1="513" x2="548" y1="382.7813" y2="382.7813"/><line style="stroke:#181818;stroke-width:1.0;" x1="548" x2="548" y1="382.7813" y2="413.6992"/><polygon fill="#181818" points="544,403.6992,548,413.6992,552,403.6992,548,407.6992" style="stroke:#181818;stroke-width:1.0;"/><line style="stroke:#181818;stroke-width:1.0;" x1="244.5" x2="425.5" y1="455.6992" y2="455.6992"/><line style="stroke:#181818;stroke-width:1.0;" x1="367" x2="367" y1="455.6992" y2="475.6992"/><polygon fill="#181818" points="363,465.6992,367,475.6992,371,465.6992,367,469.6992" style="stroke:#181818;stroke-width:1.0;"/><line style="stroke:#181818;stroke-width:1.0;" x1="367" x2="367" y1="74" y2="94"/><polygon fill="#181818" points="363,84,367,94,371,84,367,88" style="stroke:#181818;stroke-width:1.0;"/><line style="stroke:#181818;stroke-width:1.0;" x1="367" x2="367" y1="510.793" y2="558.793"/><line style="stroke:#181818;stroke-width:1.0;" x1="367" x2="726" y1="558.793" y2="558.793"/><polygon fill="#181818" points="722,305.6465,726,295.6465,730,305.6465,726,301.6465" style="stroke:#181818;stroke-width:1.0;"/><line style="stroke:#181818;stroke-width:1.0;" x1="726" x2="726" y1="62" y2="558.793"/><line style="stroke:#181818;stroke-width:1.0;" x1="726" x2="379" y1="62" y2="62"/><polygon fill="#181818" points="389,58,379,62,389,66,385,62" style="stroke:#181818;stroke-width:1.0;"/><line style="stroke:#181818;stroke-width:1.0;" x1="367" x2="367" y1="30" y2="50"/><polygon fill="#181818" points="363,40,367,50,371,40,367,44" style="stroke:#181818;stroke-width:1.0;"/><!--MD5=[20217cea6a523bcefd4495536a2b89d9]
@startuml ../../static/img/docs/workflows/inhibitor-admission
skinparam defaultTextAlignment center

start

repeat
  #yellow:Inhibitor added or modified]
  if (spec.schedule is a valid RRule?) then (no)
  elseif(spec.duration is a valid time range?) then (no)
  elseif (status.phase == Accepted) then (no)
  else (yes)
    #palegreen:Store in Cache>
    stop
  endif
  #pink:update status.failureReasons|
  if (status.phase == Rejected) then (no)
  elseif (status.failureReasons changed) then (yes)
  else (no)
    stop
  endif
  #pink:update status.phase|
@enduml

PlantUML version 1.2022.3(Tue Mar 29 18:10:57 CEST 2022)
(GPL source distribution)
Java Runtime: OpenJDK Runtime Environment
JVM: OpenJDK 64-Bit Server VM
Default Encoding: UTF-8
Language: fr
Country: FR
--></g></svg>