<?xml version="1.0" encoding="UTF-8" standalone="no"?><svg xmlns="http://www.w3.org/2000/svg" xmlns:xlink="http://www.w3.org/1999/xlink" contentStyleType="text/css" height="675px" preserveAspectRatio="none" style="width:382px;height:675px;background:#FFFFFF;" version="1.1" viewBox="0 0 382 675" width="382px" zoomAndPan="magnify"><defs/><g><ellipse cx="157.5" cy="20" fill="#222222" rx="10" ry="10" style="stroke:#222222;stroke-width:1.0;"/><rect fill="#F1F1F1" height="35.0938" rx="12.5" ry="12.5" style="stroke:#181818;stroke-width:0.5;" width="115" x="100" y="94"/><text fill="#000000" font-family="sans-serif" font-size="12" lengthAdjust="spacing" textLength="95" x="110" y="116.457">Inhibitor changed</text><polygon fill="#F1F1F1" points="85.5,171.3467,229.5,171.3467,241.5,185.1826,229.5,199.0186,85.5,199.0186,73.5,185.1826,85.5,171.3467" style="stroke:#181818;stroke-width:0.5;"/><text fill="#000000" font-family="sans-serif" font-size="11" lengthAdjust="spacing" textLength="127" x="94" y="182.7656">Schedule is a valid RRule?</text><text fill="#000000" font-family="sans-serif" font-size="11" lengthAdjust="spacing" textLength="144" x="85.5" y="196.6016">Duration is a valid time range?</text><text fill="#000000" font-family="sans-serif" font-size="11" lengthAdjust="spacing" textLength="18" x="55.5" y="182.7656">yes</text><text fill="#000000" font-family="sans-serif" font-size="11" lengthAdjust="spacing" textLength="12" x="241.5" y="182.7656">no</text><rect fill="#F1F1F1" height="35.0938" rx="12.5" ry="12.5" style="stroke:#181818;stroke-width:0.5;" width="101" x="13" y="280.4756"/><text fill="#000000" font-family="sans-serif" font-size="12" lengthAdjust="spacing" textLength="81" x="23" y="302.9326">Store in Cache</text><rect fill="#F1F1F1" height="35.0938" rx="12.5" ry="12.5" style="stroke:#181818;stroke-width:0.5;" width="98" x="14.5" y="350.5693"/><text fill="#000000" font-family="sans-serif" font-size="12" lengthAdjust="spacing" textLength="78" x="24.5" y="373.0264">Reconciliation</text><ellipse cx="63.5" cy="420.3447" rx="11" ry="11" style="stroke:#222222;stroke-width:1.0;fill:none;"/><ellipse cx="63.5" cy="420.3447" fill="#222222" rx="6" ry="6" style="stroke:#111111;stroke-width:1.0;"/><polygon fill="#F1F1F1" points="32,209.0186,95,209.0186,107,232.2881,95,255.5576,32,255.5576,20,232.2881,32,209.0186" style="stroke:#181818;stroke-width:0.5;"/><text fill="#000000" font-family="sans-serif" font-size="11" lengthAdjust="spacing" textLength="18" x="67.5" y="266.9766">yes</text><text fill="#000000" font-family="sans-serif" font-size="11" lengthAdjust="spacing" textLength="63" x="32" y="220.4375">status.phase</text><text fill="#000000" font-family="sans-serif" font-size="15" font-weight="bold" lengthAdjust="spacing" textLength="9" x="59" y="238.4258">=</text><text fill="#000000" font-family="sans-serif" font-size="11" lengthAdjust="spacing" textLength="47" x="40" y="253.1406">Accepted</text><rect fill="#F1F1F1" height="35.0938" rx="12.5" ry="12.5" style="stroke:#181818;stroke-width:0.5;" width="78" x="212.5" y="351.9326"/><text fill="#000000" font-family="sans-serif" font-size="12" lengthAdjust="spacing" textLength="58" x="222.5" y="374.3896">do nothing</text><ellipse cx="251.5" cy="421.708" rx="11" ry="11" style="stroke:#222222;stroke-width:1.0;fill:none;"/><ellipse cx="251.5" cy="421.708" fill="#222222" rx="6" ry="6" style="stroke:#111111;stroke-width:1.0;"/><polygon fill="#F1F1F1" points="198.5,280.4756,304.5,280.4756,316.5,303.7451,304.5,327.0146,198.5,327.0146,186.5,303.7451,198.5,280.4756" style="stroke:#181818;stroke-width:0.5;"/><text fill="#000000" font-family="sans-serif" font-size="11" lengthAdjust="spacing" textLength="18" x="255.5" y="338.4336">yes</text><text fill="#000000" font-family="sans-serif" font-size="11" lengthAdjust="spacing" textLength="106" x="198.5" y="291.8945">status.failureReasons</text><text fill="#000000" font-family="sans-serif" font-size="15" font-weight="bold" lengthAdjust="spacing" textLength="9" x="247" y="309.8828">=</text><text fill="#000000" font-family="sans-serif" font-size="11" lengthAdjust="spacing" textLength="98" x="202.5" y="324.5977">new failureReasons</text><polygon fill="#F1F1F1" points="220,209.0186,283,209.0186,295,232.2881,283,255.5576,220,255.5576,208,232.2881,220,209.0186" style="stroke:#181818;stroke-width:0.5;"/><text fill="#000000" font-family="sans-serif" font-size="11" lengthAdjust="spacing" textLength="18" x="255.5" y="266.9766">yes</text><text fill="#000000" font-family="sans-serif" font-size="11" lengthAdjust="spacing" textLength="63" x="220" y="220.4375">status.phase</text><text fill="#000000" font-family="sans-serif" font-size="15" font-weight="bold" lengthAdjust="spacing" textLength="9" x="247" y="238.4258">=</text><text fill="#000000" font-family="sans-serif" font-size="11" lengthAdjust="spacing" textLength="42" x="230.5" y="253.1406">Rejected</text><polygon fill="#F1F1F1" points="251.5,476.0713,263.5,488.0713,251.5,500.0713,239.5,488.0713,251.5,476.0713" style="stroke:#181818;stroke-width:0.5;"/><polygon fill="#F1F1F1" points="157.5,506.0713,169.5,518.0713,157.5,530.0713,145.5,518.0713,157.5,506.0713" style="stroke:#181818;stroke-width:0.5;"/><rect fill="#F1F1F1" height="65.2813" rx="12.5" ry="12.5" style="stroke:#181818;stroke-width:0.5;" width="95" x="110" y="550.0713"/><text fill="#000000" font-family="sans-serif" font-size="12" lengthAdjust="spacing" textLength="75" x="120" y="572.5283">update status</text><text fill="#000000" font-family="sans-serif" font-size="12" lengthAdjust="spacing" textLength="21" x="147" y="587.6221">and</text><text fill="#000000" font-family="sans-serif" font-size="12" lengthAdjust="spacing" textLength="58" x="128.5" y="602.7158">do nothing</text><polygon fill="#F1F1F1" points="157.5,50,169.5,62,157.5,74,145.5,62,157.5,50" style="stroke:#181818;stroke-width:0.5;"/><line style="stroke:#181818;stroke-width:1.0;" x1="63.5" x2="63.5" y1="315.5693" y2="350.5693"/><polygon fill="#181818" points="59.5,340.5693,63.5,350.5693,67.5,340.5693,63.5,344.5693" style="stroke:#181818;stroke-width:1.0;"/><line style="stroke:#181818;stroke-width:1.0;" x1="63.5" x2="63.5" y1="385.6631" y2="409.3447"/><polygon fill="#181818" points="59.5,399.3447,63.5,409.3447,67.5,399.3447,63.5,403.3447" style="stroke:#181818;stroke-width:1.0;"/><line style="stroke:#181818;stroke-width:1.0;" x1="63.5" x2="63.5" y1="255.5576" y2="280.4756"/><polygon fill="#181818" points="59.5,270.4756,63.5,280.4756,67.5,270.4756,63.5,274.4756" style="stroke:#181818;stroke-width:1.0;"/><line style="stroke:#181818;stroke-width:1.0;" x1="107" x2="124" y1="232.2881" y2="232.2881"/><polygon fill="#181818" points="120,377.0752,124,387.0752,128,377.0752,124,381.0752" style="stroke:#181818;stroke-width:1.0;"/><line style="stroke:#181818;stroke-width:1.0;" x1="124" x2="124" y1="232.2881" y2="518.0713"/><line style="stroke:#181818;stroke-width:1.0;" x1="124" x2="145.5" y1="518.0713" y2="518.0713"/><polygon fill="#181818" points="135.5,514.0713,145.5,518.0713,135.5,522.0713,139.5,518.0713" style="stroke:#181818;stroke-width:1.0;"/><line style="stroke:#181818;stroke-width:1.0;" x1="251.5" x2="251.5" y1="387.0264" y2="410.708"/><polygon fill="#181818" points="247.5,400.708,251.5,410.708,255.5,400.708,251.5,404.708" style="stroke:#181818;stroke-width:1.0;"/><line style="stroke:#181818;stroke-width:1.0;" x1="251.5" x2="251.5" y1="327.0146" y2="351.9326"/><polygon fill="#181818" points="247.5,341.9326,251.5,351.9326,255.5,341.9326,251.5,345.9326" style="stroke:#181818;stroke-width:1.0;"/><line style="stroke:#181818;stroke-width:1.0;" x1="316.5" x2="328.5" y1="303.7451" y2="303.7451"/><polygon fill="#181818" points="324.5,379.3447,328.5,389.3447,332.5,379.3447,328.5,383.3447" style="stroke:#181818;stroke-width:1.0;"/><line style="stroke:#181818;stroke-width:1.0;" x1="328.5" x2="328.5" y1="303.7451" y2="456.0713"/><line style="stroke:#181818;stroke-width:1.0;" x1="328.5" x2="251.5" y1="456.0713" y2="456.0713"/><line style="stroke:#181818;stroke-width:1.0;" x1="251.5" x2="251.5" y1="456.0713" y2="476.0713"/><polygon fill="#181818" points="247.5,466.0713,251.5,476.0713,255.5,466.0713,251.5,470.0713" style="stroke:#181818;stroke-width:1.0;"/><line style="stroke:#181818;stroke-width:1.0;" x1="251.5" x2="251.5" y1="255.5576" y2="280.4756"/><polygon fill="#181818" points="247.5,270.4756,251.5,280.4756,255.5,270.4756,251.5,274.4756" style="stroke:#181818;stroke-width:1.0;"/><line style="stroke:#181818;stroke-width:1.0;" x1="295" x2="338.5" y1="232.2881" y2="232.2881"/><polygon fill="#181818" points="334.5,362.0752,338.5,372.0752,342.5,362.0752,338.5,366.0752" style="stroke:#181818;stroke-width:1.0;"/><line style="stroke:#181818;stroke-width:1.0;" x1="338.5" x2="338.5" y1="232.2881" y2="488.0713"/><line style="stroke:#181818;stroke-width:1.0;" x1="338.5" x2="263.5" y1="488.0713" y2="488.0713"/><polygon fill="#181818" points="273.5,484.0713,263.5,488.0713,273.5,492.0713,269.5,488.0713" style="stroke:#181818;stroke-width:1.0;"/><line style="stroke:#181818;stroke-width:1.0;" x1="73.5" x2="63.5" y1="185.1826" y2="185.1826"/><line style="stroke:#181818;stroke-width:1.0;" x1="63.5" x2="63.5" y1="185.1826" y2="209.0186"/><polygon fill="#181818" points="59.5,199.0186,63.5,209.0186,67.5,199.0186,63.5,203.0186" style="stroke:#181818;stroke-width:1.0;"/><line style="stroke:#181818;stroke-width:1.0;" x1="241.5" x2="251.5" y1="185.1826" y2="185.1826"/><line style="stroke:#181818;stroke-width:1.0;" x1="251.5" x2="251.5" y1="185.1826" y2="209.0186"/><polygon fill="#181818" points="247.5,199.0186,251.5,209.0186,255.5,199.0186,251.5,203.0186" style="stroke:#181818;stroke-width:1.0;"/><line style="stroke:#181818;stroke-width:1.0;" x1="251.5" x2="251.5" y1="500.0713" y2="518.0713"/><line style="stroke:#181818;stroke-width:1.0;" x1="251.5" x2="169.5" y1="518.0713" y2="518.0713"/><polygon fill="#181818" points="179.5,514.0713,169.5,518.0713,179.5,522.0713,175.5,518.0713" style="stroke:#181818;stroke-width:1.0;"/><line style="stroke:#181818;stroke-width:1.0;" x1="157.5" x2="157.5" y1="129.0938" y2="171.3467"/><polygon fill="#181818" points="153.5,161.3467,157.5,171.3467,161.5,161.3467,157.5,165.3467" style="stroke:#181818;stroke-width:1.0;"/><text fill="#000000" font-family="sans-serif" font-size="11" lengthAdjust="spacing" textLength="117" x="161.5" y="151.4297">ADDED, MODIFIED event</text><line style="stroke:#181818;stroke-width:1.0;" x1="157.5" x2="157.5" y1="530.0713" y2="550.0713"/><polygon fill="#181818" points="153.5,540.0713,157.5,550.0713,161.5,540.0713,157.5,544.0713" style="stroke:#181818;stroke-width:1.0;"/><line style="stroke:#181818;stroke-width:1.0;" x1="157.5" x2="157.5" y1="74" y2="94"/><polygon fill="#181818" points="153.5,84,157.5,94,161.5,84,157.5,88" style="stroke:#181818;stroke-width:1.0;"/><line style="stroke:#181818;stroke-width:1.0;" x1="157.5" x2="157.5" y1="615.3525" y2="663.3525"/><line style="stroke:#181818;stroke-width:1.0;" x1="157.5" x2="356.5" y1="663.3525" y2="663.3525"/><polygon fill="#181818" points="352.5,374.7803,356.5,364.7803,360.5,374.7803,356.5,370.7803" style="stroke:#181818;stroke-width:1.0;"/><line style="stroke:#181818;stroke-width:1.0;" x1="356.5" x2="356.5" y1="62" y2="663.3525"/><line style="stroke:#181818;stroke-width:1.0;" x1="356.5" x2="169.5" y1="62" y2="62"/><polygon fill="#181818" points="179.5,58,169.5,62,179.5,66,175.5,62" style="stroke:#181818;stroke-width:1.0;"/><line style="stroke:#181818;stroke-width:1.0;" x1="157.5" x2="157.5" y1="30" y2="50"/><polygon fill="#181818" points="153.5,40,157.5,50,161.5,40,157.5,44" style="stroke:#181818;stroke-width:1.0;"/><!--MD5=[e8baa40d42f037d4951806a80b04e767]
@startuml admission_workflow_inhibitor
skinparam defaultTextAlignment center

start

repeat
  :Inhibitor changed;
  ->ADDED, MODIFIED event;
  if (Schedule is a valid RRule?\nDuration is a valid time range?) then (yes)
    if (status.phase\n==\nAccepted) then (yes)
      :Store in Cache;
      :Reconciliation;
      stop
    endif
  else (no)
    if (status.phase\n==\nRejected) then (yes)
      if (status.failureReasons\n==\nnew failureReasons) then (yes)
        :do nothing;
        stop
      endif
    endif
  endif
  :update status\nand\ndo nothing;


@enduml

PlantUML version 1.2022.3(Tue Mar 29 18:10:57 CEST 2022)
(GPL source distribution)
Java Runtime: OpenJDK Runtime Environment
JVM: OpenJDK 64-Bit Server VM
Default Encoding: UTF-8
Language: fr
Country: FR
--></g></svg>