<?xml version="1.0" encoding="UTF-8" standalone="no"?><svg xmlns="http://www.w3.org/2000/svg" xmlns:xlink="http://www.w3.org/1999/xlink" contentStyleType="text/css" height="671px" preserveAspectRatio="none" style="width:362px;height:671px;background:#FFFFFF;" version="1.1" viewBox="0 0 362 671" width="362px" zoomAndPan="magnify"><defs/><g><ellipse cx="147.25" cy="20" fill="#222222" rx="10" ry="10" style="stroke:#222222;stroke-width:1.0;"/><rect fill="#F1F1F1" height="35.0938" rx="12.5" ry="12.5" style="stroke:#181818;stroke-width:0.5;" width="114" x="90.25" y="94"/><text fill="#000000" font-family="sans-serif" font-size="12" lengthAdjust="spacing" textLength="94" x="100.25" y="116.457">Reactor changed</text><polygon fill="#F1F1F1" points="89.25,171.3467,205.25,171.3467,217.25,183.3467,205.25,195.3467,89.25,195.3467,77.25,183.3467,89.25,171.3467" style="stroke:#181818;stroke-width:0.5;"/><text fill="#000000" font-family="sans-serif" font-size="11" lengthAdjust="spacing" textLength="116" x="89.25" y="187.8477">ServiceAccount exists?</text><text fill="#000000" font-family="sans-serif" font-size="11" lengthAdjust="spacing" textLength="18" x="59.25" y="180.9297">yes</text><text fill="#000000" font-family="sans-serif" font-size="11" lengthAdjust="spacing" textLength="12" x="217.25" y="180.9297">no</text><rect fill="#F1F1F1" height="35.0938" rx="12.5" ry="12.5" style="stroke:#181818;stroke-width:0.5;" width="101" x="13" y="276.8037"/><text fill="#000000" font-family="sans-serif" font-size="12" lengthAdjust="spacing" textLength="81" x="23" y="299.2607">Store in Cache</text><rect fill="#F1F1F1" height="35.0938" rx="12.5" ry="12.5" style="stroke:#181818;stroke-width:0.5;" width="98" x="14.5" y="346.8975"/><text fill="#000000" font-family="sans-serif" font-size="12" lengthAdjust="spacing" textLength="78" x="24.5" y="369.3545">Reconciliation</text><ellipse cx="63.5" cy="416.6729" rx="11" ry="11" style="stroke:#222222;stroke-width:1.0;fill:none;"/><ellipse cx="63.5" cy="416.6729" fill="#222222" rx="6" ry="6" style="stroke:#111111;stroke-width:1.0;"/><polygon fill="#F1F1F1" points="32,205.3467,95,205.3467,107,228.6162,95,251.8857,32,251.8857,20,228.6162,32,205.3467" style="stroke:#181818;stroke-width:0.5;"/><text fill="#000000" font-family="sans-serif" font-size="11" lengthAdjust="spacing" textLength="18" x="67.5" y="263.3047">yes</text><text fill="#000000" font-family="sans-serif" font-size="11" lengthAdjust="spacing" textLength="63" x="32" y="216.7656">status.phase</text><text fill="#000000" font-family="sans-serif" font-size="15" font-weight="bold" lengthAdjust="spacing" textLength="9" x="59" y="234.7539">=</text><text fill="#000000" font-family="sans-serif" font-size="11" lengthAdjust="spacing" textLength="47" x="40" y="249.4688">Accepted</text><rect fill="#F1F1F1" height="35.0938" rx="12.5" ry="12.5" style="stroke:#181818;stroke-width:0.5;" width="78" x="192" y="348.2607"/><text fill="#000000" font-family="sans-serif" font-size="12" lengthAdjust="spacing" textLength="58" x="202" y="370.7178">do nothing</text><ellipse cx="231" cy="418.0361" rx="11" ry="11" style="stroke:#222222;stroke-width:1.0;fill:none;"/><ellipse cx="231" cy="418.0361" fill="#222222" rx="6" ry="6" style="stroke:#111111;stroke-width:1.0;"/><polygon fill="#F1F1F1" points="178,276.8037,284,276.8037,296,300.0732,284,323.3428,178,323.3428,166,300.0732,178,276.8037" style="stroke:#181818;stroke-width:0.5;"/><text fill="#000000" font-family="sans-serif" font-size="11" lengthAdjust="spacing" textLength="18" x="235" y="334.7617">yes</text><text fill="#000000" font-family="sans-serif" font-size="11" lengthAdjust="spacing" textLength="106" x="178" y="288.2227">status.failureReasons</text><text fill="#000000" font-family="sans-serif" font-size="15" font-weight="bold" lengthAdjust="spacing" textLength="9" x="226.5" y="306.2109">=</text><text fill="#000000" font-family="sans-serif" font-size="11" lengthAdjust="spacing" textLength="98" x="182" y="320.9258">new failureReasons</text><polygon fill="#F1F1F1" points="199.5,205.3467,262.5,205.3467,274.5,228.6162,262.5,251.8857,199.5,251.8857,187.5,228.6162,199.5,205.3467" style="stroke:#181818;stroke-width:0.5;"/><text fill="#000000" font-family="sans-serif" font-size="11" lengthAdjust="spacing" textLength="18" x="235" y="263.3047">yes</text><text fill="#000000" font-family="sans-serif" font-size="11" lengthAdjust="spacing" textLength="63" x="199.5" y="216.7656">status.phase</text><text fill="#000000" font-family="sans-serif" font-size="15" font-weight="bold" lengthAdjust="spacing" textLength="9" x="226.5" y="234.7539">=</text><text fill="#000000" font-family="sans-serif" font-size="11" lengthAdjust="spacing" textLength="42" x="210" y="249.4688">Rejected</text><polygon fill="#F1F1F1" points="231,472.3994,243,484.3994,231,496.3994,219,484.3994,231,472.3994" style="stroke:#181818;stroke-width:0.5;"/><polygon fill="#F1F1F1" points="147.25,502.3994,159.25,514.3994,147.25,526.3994,135.25,514.3994,147.25,502.3994" style="stroke:#181818;stroke-width:0.5;"/><rect fill="#F1F1F1" height="65.2813" rx="12.5" ry="12.5" style="stroke:#181818;stroke-width:0.5;" width="95" x="99.75" y="546.3994"/><text fill="#000000" font-family="sans-serif" font-size="12" lengthAdjust="spacing" textLength="75" x="109.75" y="568.8564">update status</text><text fill="#000000" font-family="sans-serif" font-size="12" lengthAdjust="spacing" textLength="21" x="136.75" y="583.9502">and</text><text fill="#000000" font-family="sans-serif" font-size="12" lengthAdjust="spacing" textLength="58" x="118.25" y="599.0439">do nothing</text><polygon fill="#F1F1F1" points="147.25,50,159.25,62,147.25,74,135.25,62,147.25,50" style="stroke:#181818;stroke-width:0.5;"/><line style="stroke:#181818;stroke-width:1.0;" x1="63.5" x2="63.5" y1="311.8975" y2="346.8975"/><polygon fill="#181818" points="59.5,336.8975,63.5,346.8975,67.5,336.8975,63.5,340.8975" style="stroke:#181818;stroke-width:1.0;"/><line style="stroke:#181818;stroke-width:1.0;" x1="63.5" x2="63.5" y1="381.9912" y2="405.6729"/><polygon fill="#181818" points="59.5,395.6729,63.5,405.6729,67.5,395.6729,63.5,399.6729" style="stroke:#181818;stroke-width:1.0;"/><line style="stroke:#181818;stroke-width:1.0;" x1="63.5" x2="63.5" y1="251.8857" y2="276.8037"/><polygon fill="#181818" points="59.5,266.8037,63.5,276.8037,67.5,266.8037,63.5,270.8037" style="stroke:#181818;stroke-width:1.0;"/><line style="stroke:#181818;stroke-width:1.0;" x1="107" x2="124" y1="228.6162" y2="228.6162"/><polygon fill="#181818" points="120,373.4033,124,383.4033,128,373.4033,124,377.4033" style="stroke:#181818;stroke-width:1.0;"/><line style="stroke:#181818;stroke-width:1.0;" x1="124" x2="124" y1="228.6162" y2="514.3994"/><line style="stroke:#181818;stroke-width:1.0;" x1="124" x2="135.25" y1="514.3994" y2="514.3994"/><polygon fill="#181818" points="125.25,510.3994,135.25,514.3994,125.25,518.3994,129.25,514.3994" style="stroke:#181818;stroke-width:1.0;"/><line style="stroke:#181818;stroke-width:1.0;" x1="231" x2="231" y1="383.3545" y2="407.0361"/><polygon fill="#181818" points="227,397.0361,231,407.0361,235,397.0361,231,401.0361" style="stroke:#181818;stroke-width:1.0;"/><line style="stroke:#181818;stroke-width:1.0;" x1="231" x2="231" y1="323.3428" y2="348.2607"/><polygon fill="#181818" points="227,338.2607,231,348.2607,235,338.2607,231,342.2607" style="stroke:#181818;stroke-width:1.0;"/><line style="stroke:#181818;stroke-width:1.0;" x1="296" x2="308" y1="300.0732" y2="300.0732"/><polygon fill="#181818" points="304,375.6729,308,385.6729,312,375.6729,308,379.6729" style="stroke:#181818;stroke-width:1.0;"/><line style="stroke:#181818;stroke-width:1.0;" x1="308" x2="308" y1="300.0732" y2="452.3994"/><line style="stroke:#181818;stroke-width:1.0;" x1="308" x2="231" y1="452.3994" y2="452.3994"/><line style="stroke:#181818;stroke-width:1.0;" x1="231" x2="231" y1="452.3994" y2="472.3994"/><polygon fill="#181818" points="227,462.3994,231,472.3994,235,462.3994,231,466.3994" style="stroke:#181818;stroke-width:1.0;"/><line style="stroke:#181818;stroke-width:1.0;" x1="231" x2="231" y1="251.8857" y2="276.8037"/><polygon fill="#181818" points="227,266.8037,231,276.8037,235,266.8037,231,270.8037" style="stroke:#181818;stroke-width:1.0;"/><line style="stroke:#181818;stroke-width:1.0;" x1="274.5" x2="318" y1="228.6162" y2="228.6162"/><polygon fill="#181818" points="314,358.4033,318,368.4033,322,358.4033,318,362.4033" style="stroke:#181818;stroke-width:1.0;"/><line style="stroke:#181818;stroke-width:1.0;" x1="318" x2="318" y1="228.6162" y2="484.3994"/><line style="stroke:#181818;stroke-width:1.0;" x1="318" x2="243" y1="484.3994" y2="484.3994"/><polygon fill="#181818" points="253,480.3994,243,484.3994,253,488.3994,249,484.3994" style="stroke:#181818;stroke-width:1.0;"/><line style="stroke:#181818;stroke-width:1.0;" x1="77.25" x2="63.5" y1="183.3467" y2="183.3467"/><line style="stroke:#181818;stroke-width:1.0;" x1="63.5" x2="63.5" y1="183.3467" y2="205.3467"/><polygon fill="#181818" points="59.5,195.3467,63.5,205.3467,67.5,195.3467,63.5,199.3467" style="stroke:#181818;stroke-width:1.0;"/><line style="stroke:#181818;stroke-width:1.0;" x1="217.25" x2="231" y1="183.3467" y2="183.3467"/><line style="stroke:#181818;stroke-width:1.0;" x1="231" x2="231" y1="183.3467" y2="205.3467"/><polygon fill="#181818" points="227,195.3467,231,205.3467,235,195.3467,231,199.3467" style="stroke:#181818;stroke-width:1.0;"/><line style="stroke:#181818;stroke-width:1.0;" x1="231" x2="231" y1="496.3994" y2="514.3994"/><line style="stroke:#181818;stroke-width:1.0;" x1="231" x2="159.25" y1="514.3994" y2="514.3994"/><polygon fill="#181818" points="169.25,510.3994,159.25,514.3994,169.25,518.3994,165.25,514.3994" style="stroke:#181818;stroke-width:1.0;"/><line style="stroke:#181818;stroke-width:1.0;" x1="147.25" x2="147.25" y1="129.0938" y2="171.3467"/><polygon fill="#181818" points="143.25,161.3467,147.25,171.3467,151.25,161.3467,147.25,165.3467" style="stroke:#181818;stroke-width:1.0;"/><text fill="#000000" font-family="sans-serif" font-size="11" lengthAdjust="spacing" textLength="117" x="151.25" y="151.4297">ADDED, MODIFIED event</text><line style="stroke:#181818;stroke-width:1.0;" x1="147.25" x2="147.25" y1="526.3994" y2="546.3994"/><polygon fill="#181818" points="143.25,536.3994,147.25,546.3994,151.25,536.3994,147.25,540.3994" style="stroke:#181818;stroke-width:1.0;"/><line style="stroke:#181818;stroke-width:1.0;" x1="147.25" x2="147.25" y1="74" y2="94"/><polygon fill="#181818" points="143.25,84,147.25,94,151.25,84,147.25,88" style="stroke:#181818;stroke-width:1.0;"/><line style="stroke:#181818;stroke-width:1.0;" x1="147.25" x2="147.25" y1="611.6807" y2="659.6807"/><line style="stroke:#181818;stroke-width:1.0;" x1="147.25" x2="336" y1="659.6807" y2="659.6807"/><polygon fill="#181818" points="332,372.9443,336,362.9443,340,372.9443,336,368.9443" style="stroke:#181818;stroke-width:1.0;"/><line style="stroke:#181818;stroke-width:1.0;" x1="336" x2="336" y1="62" y2="659.6807"/><line style="stroke:#181818;stroke-width:1.0;" x1="336" x2="159.25" y1="62" y2="62"/><polygon fill="#181818" points="169.25,58,159.25,62,169.25,66,165.25,62" style="stroke:#181818;stroke-width:1.0;"/><line style="stroke:#181818;stroke-width:1.0;" x1="147.25" x2="147.25" y1="30" y2="50"/><polygon fill="#181818" points="143.25,40,147.25,50,151.25,40,147.25,44" style="stroke:#181818;stroke-width:1.0;"/><!--MD5=[a35e25ce4c0f95113533b2fd4065dd8a]
@startuml ../../static/img/docs/workflows/reactor-admission
skinparam defaultTextAlignment center

start

repeat
  :Reactor changed;
  ->ADDED, MODIFIED event;
  if (ServiceAccount exists?) then (yes)
    if (status.phase\n==\nAccepted) then (yes)
      :Store in Cache;
      :Reconciliation;
      stop
    endif
  else (no)
    if (status.phase\n==\nRejected) then (yes)
      if (status.failureReasons\n==\nnew failureReasons) then (yes)
        :do nothing;
        stop
      endif
    endif
  endif
  :update status\nand\ndo nothing;


@enduml

PlantUML version 1.2022.3(Tue Mar 29 18:10:57 CEST 2022)
(GPL source distribution)
Java Runtime: OpenJDK Runtime Environment
JVM: OpenJDK 64-Bit Server VM
Default Encoding: UTF-8
Language: fr
Country: FR
--></g></svg>