<?xml version="1.0" encoding="UTF-8" standalone="no"?><svg xmlns="http://www.w3.org/2000/svg" xmlns:xlink="http://www.w3.org/1999/xlink" contentStyleType="text/css" height="625px" preserveAspectRatio="none" style="width:582px;height:625px;background:#FFFFFF;" version="1.1" viewBox="0 0 582 625" width="582px" zoomAndPan="magnify"><defs/><g><ellipse cx="282" cy="20" fill="#222222" rx="10" ry="10" style="stroke:#222222;stroke-width:1.0;"/><rect fill="#FFFF00" height="35.0938" style="stroke:#181818;stroke-width:0.5;" width="166" x="199" y="94"/><text fill="#000000" font-family="sans-serif" font-size="12" lengthAdjust="spacing" textLength="146" x="209" y="116.457">Reactor added or modified</text><polygon fill="#F1F1F1" points="32,149.0938,201,149.0938,213,161.0938,201,173.0938,32,173.0938,20,161.0938,32,149.0938" style="stroke:#181818;stroke-width:0.5;"/><text fill="#000000" font-family="sans-serif" font-size="11" lengthAdjust="spacing" textLength="12" x="120.5" y="184.5127">no</text><text fill="#000000" font-family="sans-serif" font-size="11" lengthAdjust="spacing" textLength="169" x="32" y="165.5947">spec.serviceAccountName exists?</text><polygon fill="#F1F1F1" points="245,149.0938,373,149.0938,385,161.0938,373,173.0938,245,173.0938,233,161.0938,245,149.0938" style="stroke:#181818;stroke-width:0.5;"/><text fill="#000000" font-family="sans-serif" font-size="11" lengthAdjust="spacing" textLength="12" x="313" y="184.5127">no</text><text fill="#000000" font-family="sans-serif" font-size="11" lengthAdjust="spacing" textLength="128" x="245" y="165.5947">status.phase == Accepted</text><text fill="#000000" font-family="sans-serif" font-size="11" lengthAdjust="spacing" textLength="18" x="385" y="158.6768">yes</text><polygon fill="#98FB98" points="419,188.5527,520,188.5527,530,206.0996,520,223.6465,419,223.6465" style="stroke:#181818;stroke-width:0.5;"/><text fill="#000000" font-family="sans-serif" font-size="12" lengthAdjust="spacing" textLength="81" x="434" y="211.0098">Store in Cache</text><polygon fill="#98FB98" points="405,243.6465,534,243.6465,544,261.1934,534,278.7402,405,278.7402" style="stroke:#181818;stroke-width:0.5;"/><text fill="#000000" font-family="sans-serif" font-size="12" lengthAdjust="spacing" textLength="109" x="420" y="266.1035">Reconcile pipelines</text><ellipse cx="469.5" cy="309.7402" rx="11" ry="11" style="stroke:#222222;stroke-width:1.0;fill:none;"/><ellipse cx="469.5" cy="309.7402" fill="#222222" rx="6" ry="6" style="stroke:#111111;stroke-width:1.0;"/><rect fill="#FFC0CB" height="35.0938" style="stroke:#181818;stroke-width:0.5;" width="183" x="190.5" y="370.8281"/><line style="stroke:#181818;stroke-width:0.5;" x1="195.5" x2="195.5" y1="370.8281" y2="405.9219"/><line style="stroke:#181818;stroke-width:0.5;" x1="368.5" x2="368.5" y1="370.8281" y2="405.9219"/><text fill="#000000" font-family="sans-serif" font-size="12" lengthAdjust="spacing" textLength="163" x="200.5" y="393.2852">update status.failureReasons</text><polygon fill="#F1F1F1" points="98,425.9219,221,425.9219,233,437.9219,221,449.9219,98,449.9219,86,437.9219,98,425.9219" style="stroke:#181818;stroke-width:0.5;"/><text fill="#000000" font-family="sans-serif" font-size="11" lengthAdjust="spacing" textLength="12" x="163.5" y="461.3408">no</text><text fill="#000000" font-family="sans-serif" font-size="11" lengthAdjust="spacing" textLength="123" x="98" y="442.4229">status.phase == Rejected</text><polygon fill="#F1F1F1" points="265,425.9219,416,425.9219,428,437.9219,416,449.9219,265,449.9219,253,437.9219,265,425.9219" style="stroke:#181818;stroke-width:0.5;"/><text fill="#000000" font-family="sans-serif" font-size="11" lengthAdjust="spacing" textLength="18" x="344.5" y="461.3408">yes</text><text fill="#000000" font-family="sans-serif" font-size="11" lengthAdjust="spacing" textLength="151" x="265" y="442.4229">status.failureReasons changed</text><text fill="#000000" font-family="sans-serif" font-size="11" lengthAdjust="spacing" textLength="12" x="428" y="435.5049">no</text><ellipse cx="463" cy="479.8398" rx="11" ry="11" style="stroke:#222222;stroke-width:1.0;fill:none;"/><ellipse cx="463" cy="479.8398" fill="#222222" rx="6" ry="6" style="stroke:#111111;stroke-width:1.0;"/><rect fill="#FFC0CB" height="35.0938" style="stroke:#181818;stroke-width:0.5;" width="133" x="215.5" y="530.8398"/><line style="stroke:#181818;stroke-width:0.5;" x1="220.5" x2="220.5" y1="530.8398" y2="565.9336"/><line style="stroke:#181818;stroke-width:0.5;" x1="343.5" x2="343.5" y1="530.8398" y2="565.9336"/><text fill="#000000" font-family="sans-serif" font-size="12" lengthAdjust="spacing" textLength="113" x="225.5" y="553.2969">update status.phase</text><polygon fill="#F1F1F1" points="282,50,294,62,282,74,270,62,282,50" style="stroke:#181818;stroke-width:0.5;"/><line style="stroke:#181818;stroke-width:1.0;" x1="469.5" x2="469.5" y1="223.6465" y2="243.6465"/><polygon fill="#181818" points="465.5,233.6465,469.5,243.6465,473.5,233.6465,469.5,237.6465" style="stroke:#181818;stroke-width:1.0;"/><line style="stroke:#181818;stroke-width:1.0;" x1="469.5" x2="469.5" y1="278.7402" y2="298.7402"/><polygon fill="#181818" points="465.5,288.7402,469.5,298.7402,473.5,288.7402,469.5,292.7402" style="stroke:#181818;stroke-width:1.0;"/><line style="stroke:#181818;stroke-width:1.0;" x1="116.5" x2="116.5" y1="173.0938" y2="350.8281"/><polygon fill="#181818" points="112.5,340.8281,116.5,350.8281,120.5,340.8281,116.5,344.8281" style="stroke:#181818;stroke-width:1.0;"/><line style="stroke:#181818;stroke-width:1.0;" x1="309" x2="309" y1="173.0938" y2="350.8281"/><polygon fill="#181818" points="305,340.8281,309,350.8281,313,340.8281,309,344.8281" style="stroke:#181818;stroke-width:1.0;"/><line style="stroke:#181818;stroke-width:1.0;" x1="213" x2="233" y1="161.0938" y2="161.0938"/><polygon fill="#181818" points="223,157.0938,233,161.0938,223,165.0938,227,161.0938" style="stroke:#181818;stroke-width:1.0;"/><line style="stroke:#181818;stroke-width:1.0;" x1="282" x2="282" y1="129.0938" y2="134.0938"/><line style="stroke:#181818;stroke-width:1.0;" x1="282" x2="116.5" y1="134.0938" y2="134.0938"/><line style="stroke:#181818;stroke-width:1.0;" x1="116.5" x2="116.5" y1="134.0938" y2="149.0938"/><polygon fill="#181818" points="112.5,139.0938,116.5,149.0938,120.5,139.0938,116.5,143.0938" style="stroke:#181818;stroke-width:1.0;"/><line style="stroke:#181818;stroke-width:1.0;" x1="385" x2="469.5" y1="161.0938" y2="161.0938"/><line style="stroke:#181818;stroke-width:1.0;" x1="469.5" x2="469.5" y1="161.0938" y2="188.5527"/><polygon fill="#181818" points="465.5,178.5527,469.5,188.5527,473.5,178.5527,469.5,182.5527" style="stroke:#181818;stroke-width:1.0;"/><line style="stroke:#181818;stroke-width:1.0;" x1="116.5" x2="309" y1="350.8281" y2="350.8281"/><line style="stroke:#181818;stroke-width:1.0;" x1="282" x2="282" y1="350.8281" y2="370.8281"/><polygon fill="#181818" points="278,360.8281,282,370.8281,286,360.8281,282,364.8281" style="stroke:#181818;stroke-width:1.0;"/><line style="stroke:#181818;stroke-width:1.0;" x1="159.5" x2="159.5" y1="449.9219" y2="510.8398"/><polygon fill="#181818" points="155.5,500.8398,159.5,510.8398,163.5,500.8398,159.5,504.8398" style="stroke:#181818;stroke-width:1.0;"/><line style="stroke:#181818;stroke-width:1.0;" x1="340.5" x2="340.5" y1="449.9219" y2="510.8398"/><polygon fill="#181818" points="336.5,500.8398,340.5,510.8398,344.5,500.8398,340.5,504.8398" style="stroke:#181818;stroke-width:1.0;"/><line style="stroke:#181818;stroke-width:1.0;" x1="233" x2="253" y1="437.9219" y2="437.9219"/><polygon fill="#181818" points="243,433.9219,253,437.9219,243,441.9219,247,437.9219" style="stroke:#181818;stroke-width:1.0;"/><line style="stroke:#181818;stroke-width:1.0;" x1="282" x2="282" y1="405.9219" y2="410.9219"/><line style="stroke:#181818;stroke-width:1.0;" x1="282" x2="159.5" y1="410.9219" y2="410.9219"/><line style="stroke:#181818;stroke-width:1.0;" x1="159.5" x2="159.5" y1="410.9219" y2="425.9219"/><polygon fill="#181818" points="155.5,415.9219,159.5,425.9219,163.5,415.9219,159.5,419.9219" style="stroke:#181818;stroke-width:1.0;"/><line style="stroke:#181818;stroke-width:1.0;" x1="428" x2="463" y1="437.9219" y2="437.9219"/><line style="stroke:#181818;stroke-width:1.0;" x1="463" x2="463" y1="437.9219" y2="468.8398"/><polygon fill="#181818" points="459,458.8398,463,468.8398,467,458.8398,463,462.8398" style="stroke:#181818;stroke-width:1.0;"/><line style="stroke:#181818;stroke-width:1.0;" x1="159.5" x2="340.5" y1="510.8398" y2="510.8398"/><line style="stroke:#181818;stroke-width:1.0;" x1="282" x2="282" y1="510.8398" y2="530.8398"/><polygon fill="#181818" points="278,520.8398,282,530.8398,286,520.8398,282,524.8398" style="stroke:#181818;stroke-width:1.0;"/><line style="stroke:#181818;stroke-width:1.0;" x1="282" x2="282" y1="74" y2="94"/><polygon fill="#181818" points="278,84,282,94,286,84,282,88" style="stroke:#181818;stroke-width:1.0;"/><line style="stroke:#181818;stroke-width:1.0;" x1="282" x2="282" y1="565.9336" y2="613.9336"/><line style="stroke:#181818;stroke-width:1.0;" x1="282" x2="556" y1="613.9336" y2="613.9336"/><polygon fill="#181818" points="552,340.7402,556,330.7402,560,340.7402,556,336.7402" style="stroke:#181818;stroke-width:1.0;"/><line style="stroke:#181818;stroke-width:1.0;" x1="556" x2="556" y1="62" y2="613.9336"/><line style="stroke:#181818;stroke-width:1.0;" x1="556" x2="294" y1="62" y2="62"/><polygon fill="#181818" points="304,58,294,62,304,66,300,62" style="stroke:#181818;stroke-width:1.0;"/><line style="stroke:#181818;stroke-width:1.0;" x1="282" x2="282" y1="30" y2="50"/><polygon fill="#181818" points="278,40,282,50,286,40,282,44" style="stroke:#181818;stroke-width:1.0;"/><!--MD5=[40a02092415bdf54f0e7912cee8357f0]
@startuml ../../static/img/docs/workflows/reactor-admission
skinparam defaultTextAlignment center

start

repeat
  #yellow:Reactor added or modified]
  if (spec.serviceAccountName exists?) then (no)
  elseif (status.phase == Accepted) then (no)
  else (yes)
    #palegreen:Store in Cache>
    #palegreen:Reconcile pipelines>
    stop
  endif
  #pink:update status.failureReasons|
  if (status.phase == Rejected) then (no)
  elseif (status.failureReasons changed) then (yes)
  else (no)
    stop
  endif
  #pink:update status.phase|
@enduml

PlantUML version 1.2022.3(Tue Mar 29 18:10:57 CEST 2022)
(GPL source distribution)
Java Runtime: OpenJDK Runtime Environment
JVM: OpenJDK 64-Bit Server VM
Default Encoding: UTF-8
Language: fr
Country: FR
--></g></svg>