<?xml version="1.0" encoding="UTF-8" standalone="no"?><svg xmlns="http://www.w3.org/2000/svg" xmlns:xlink="http://www.w3.org/1999/xlink" contentStyleType="text/css" height="690px" preserveAspectRatio="none" style="width:779px;height:690px;background:#FFFFFF;" version="1.1" viewBox="0 0 779 690" width="779px" zoomAndPan="magnify"><defs/><g><ellipse cx="380.5" cy="20" fill="#222222" rx="10" ry="10" style="stroke:#222222;stroke-width:1.0;"/><rect fill="#FFFF00" height="35.0938" style="stroke:#181818;stroke-width:0.5;" width="145" x="308" y="94"/><text fill="#000000" font-family="sans-serif" font-size="12" lengthAdjust="spacing" textLength="125" x="318" y="116.457">Unit added or modified</text><polygon fill="#F1F1F1" points="32,149.0938,201,149.0938,213,161.0938,201,173.0938,32,173.0938,20,161.0938,32,149.0938" style="stroke:#181818;stroke-width:0.5;"/><text fill="#000000" font-family="sans-serif" font-size="11" lengthAdjust="spacing" textLength="12" x="120.5" y="184.5127">no</text><text fill="#000000" font-family="sans-serif" font-size="11" lengthAdjust="spacing" textLength="169" x="32" y="165.5947">spec.serviceAccountName exists?</text><polygon fill="#F1F1F1" points="245,149.0938,398,149.0938,410,161.0938,398,173.0938,245,173.0938,233,161.0938,245,149.0938" style="stroke:#181818;stroke-width:0.5;"/><text fill="#000000" font-family="sans-serif" font-size="11" lengthAdjust="spacing" textLength="12" x="325.5" y="184.5127">no</text><text fill="#000000" font-family="sans-serif" font-size="11" lengthAdjust="spacing" textLength="153" x="245" y="165.5947">spec.schedule is a valid RRule?</text><polygon fill="#F1F1F1" points="442,149.0938,570,149.0938,582,161.0938,570,173.0938,442,173.0938,430,161.0938,442,149.0938" style="stroke:#181818;stroke-width:0.5;"/><text fill="#000000" font-family="sans-serif" font-size="11" lengthAdjust="spacing" textLength="12" x="510" y="184.5127">no</text><text fill="#000000" font-family="sans-serif" font-size="11" lengthAdjust="spacing" textLength="128" x="442" y="165.5947">status.phase == Accepted</text><text fill="#000000" font-family="sans-serif" font-size="11" lengthAdjust="spacing" textLength="18" x="582" y="158.6768">yes</text><polygon fill="#98FB98" points="616,188.5527,717,188.5527,727,206.0996,717,223.6465,616,223.6465" style="stroke:#181818;stroke-width:0.5;"/><text fill="#000000" font-family="sans-serif" font-size="12" lengthAdjust="spacing" textLength="81" x="631" y="211.0098">Store in Cache</text><polygon fill="#98FB98" points="602,243.6465,731,243.6465,741,261.1934,731,278.7402,602,278.7402" style="stroke:#181818;stroke-width:0.5;"/><text fill="#000000" font-family="sans-serif" font-size="12" lengthAdjust="spacing" textLength="109" x="617" y="266.1035">Reconcile pipelines</text><polygon fill="#98FB98" points="607,298.7402,726,298.7402,736,316.2871,726,333.834,607,333.834" style="stroke:#181818;stroke-width:0.5;"/><text fill="#000000" font-family="sans-serif" font-size="12" lengthAdjust="spacing" textLength="99" x="622" y="321.1973">Schedule workers</text><ellipse cx="666.5" cy="364.834" rx="11" ry="11" style="stroke:#222222;stroke-width:1.0;fill:none;"/><ellipse cx="666.5" cy="364.834" fill="#222222" rx="6" ry="6" style="stroke:#111111;stroke-width:1.0;"/><rect fill="#FFC0CB" height="35.0938" style="stroke:#181818;stroke-width:0.5;" width="183" x="289" y="435.1582"/><line style="stroke:#181818;stroke-width:0.5;" x1="294" x2="294" y1="435.1582" y2="470.252"/><line style="stroke:#181818;stroke-width:0.5;" x1="467" x2="467" y1="435.1582" y2="470.252"/><text fill="#000000" font-family="sans-serif" font-size="12" lengthAdjust="spacing" textLength="163" x="299" y="457.6152">update status.failureReasons</text><polygon fill="#F1F1F1" points="196.5,490.252,319.5,490.252,331.5,502.252,319.5,514.252,196.5,514.252,184.5,502.252,196.5,490.252" style="stroke:#181818;stroke-width:0.5;"/><text fill="#000000" font-family="sans-serif" font-size="11" lengthAdjust="spacing" textLength="12" x="262" y="525.6709">no</text><text fill="#000000" font-family="sans-serif" font-size="11" lengthAdjust="spacing" textLength="123" x="196.5" y="506.7529">status.phase == Rejected</text><polygon fill="#F1F1F1" points="363.5,490.252,514.5,490.252,526.5,502.252,514.5,514.252,363.5,514.252,351.5,502.252,363.5,490.252" style="stroke:#181818;stroke-width:0.5;"/><text fill="#000000" font-family="sans-serif" font-size="11" lengthAdjust="spacing" textLength="18" x="443" y="525.6709">yes</text><text fill="#000000" font-family="sans-serif" font-size="11" lengthAdjust="spacing" textLength="151" x="363.5" y="506.7529">status.failureReasons changed</text><text fill="#000000" font-family="sans-serif" font-size="11" lengthAdjust="spacing" textLength="12" x="526.5" y="499.835">no</text><ellipse cx="561.5" cy="544.1699" rx="11" ry="11" style="stroke:#222222;stroke-width:1.0;fill:none;"/><ellipse cx="561.5" cy="544.1699" fill="#222222" rx="6" ry="6" style="stroke:#111111;stroke-width:1.0;"/><rect fill="#FFC0CB" height="35.0938" style="stroke:#181818;stroke-width:0.5;" width="133" x="314" y="595.1699"/><line style="stroke:#181818;stroke-width:0.5;" x1="319" x2="319" y1="595.1699" y2="630.2637"/><line style="stroke:#181818;stroke-width:0.5;" x1="442" x2="442" y1="595.1699" y2="630.2637"/><text fill="#000000" font-family="sans-serif" font-size="12" lengthAdjust="spacing" textLength="113" x="324" y="617.627">update status.phase</text><polygon fill="#F1F1F1" points="380.5,50,392.5,62,380.5,74,368.5,62,380.5,50" style="stroke:#181818;stroke-width:0.5;"/><line style="stroke:#181818;stroke-width:1.0;" x1="666.5" x2="666.5" y1="223.6465" y2="243.6465"/><polygon fill="#181818" points="662.5,233.6465,666.5,243.6465,670.5,233.6465,666.5,237.6465" style="stroke:#181818;stroke-width:1.0;"/><line style="stroke:#181818;stroke-width:1.0;" x1="666.5" x2="666.5" y1="278.7402" y2="298.7402"/><polygon fill="#181818" points="662.5,288.7402,666.5,298.7402,670.5,288.7402,666.5,292.7402" style="stroke:#181818;stroke-width:1.0;"/><line style="stroke:#181818;stroke-width:1.0;" x1="666.5" x2="666.5" y1="333.834" y2="353.834"/><polygon fill="#181818" points="662.5,343.834,666.5,353.834,670.5,343.834,666.5,347.834" style="stroke:#181818;stroke-width:1.0;"/><line style="stroke:#181818;stroke-width:1.0;" x1="116.5" x2="116.5" y1="173.0938" y2="415.1582"/><polygon fill="#181818" points="112.5,405.1582,116.5,415.1582,120.5,405.1582,116.5,409.1582" style="stroke:#181818;stroke-width:1.0;"/><line style="stroke:#181818;stroke-width:1.0;" x1="321.5" x2="321.5" y1="173.0938" y2="415.1582"/><polygon fill="#181818" points="317.5,405.1582,321.5,415.1582,325.5,405.1582,321.5,409.1582" style="stroke:#181818;stroke-width:1.0;"/><line style="stroke:#181818;stroke-width:1.0;" x1="506" x2="506" y1="173.0938" y2="415.1582"/><polygon fill="#181818" points="502,405.1582,506,415.1582,510,405.1582,506,409.1582" style="stroke:#181818;stroke-width:1.0;"/><line style="stroke:#181818;stroke-width:1.0;" x1="213" x2="233" y1="161.0938" y2="161.0938"/><polygon fill="#181818" points="223,157.0938,233,161.0938,223,165.0938,227,161.0938" style="stroke:#181818;stroke-width:1.0;"/><line style="stroke:#181818;stroke-width:1.0;" x1="410" x2="430" y1="161.0938" y2="161.0938"/><polygon fill="#181818" points="420,157.0938,430,161.0938,420,165.0938,424,161.0938" style="stroke:#181818;stroke-width:1.0;"/><line style="stroke:#181818;stroke-width:1.0;" x1="380.5" x2="380.5" y1="129.0938" y2="134.0938"/><line style="stroke:#181818;stroke-width:1.0;" x1="380.5" x2="116.5" y1="134.0938" y2="134.0938"/><line style="stroke:#181818;stroke-width:1.0;" x1="116.5" x2="116.5" y1="134.0938" y2="149.0938"/><polygon fill="#181818" points="112.5,139.0938,116.5,149.0938,120.5,139.0938,116.5,143.0938" style="stroke:#181818;stroke-width:1.0;"/><line style="stroke:#181818;stroke-width:1.0;" x1="582" x2="666.5" y1="161.0938" y2="161.0938"/><line style="stroke:#181818;stroke-width:1.0;" x1="666.5" x2="666.5" y1="161.0938" y2="188.5527"/><polygon fill="#181818" points="662.5,178.5527,666.5,188.5527,670.5,178.5527,666.5,182.5527" style="stroke:#181818;stroke-width:1.0;"/><line style="stroke:#181818;stroke-width:1.0;" x1="116.5" x2="506" y1="415.1582" y2="415.1582"/><line style="stroke:#181818;stroke-width:1.0;" x1="380.5" x2="380.5" y1="415.1582" y2="435.1582"/><polygon fill="#181818" points="376.5,425.1582,380.5,435.1582,384.5,425.1582,380.5,429.1582" style="stroke:#181818;stroke-width:1.0;"/><line style="stroke:#181818;stroke-width:1.0;" x1="258" x2="258" y1="514.252" y2="575.1699"/><polygon fill="#181818" points="254,565.1699,258,575.1699,262,565.1699,258,569.1699" style="stroke:#181818;stroke-width:1.0;"/><line style="stroke:#181818;stroke-width:1.0;" x1="439" x2="439" y1="514.252" y2="575.1699"/><polygon fill="#181818" points="435,565.1699,439,575.1699,443,565.1699,439,569.1699" style="stroke:#181818;stroke-width:1.0;"/><line style="stroke:#181818;stroke-width:1.0;" x1="331.5" x2="351.5" y1="502.252" y2="502.252"/><polygon fill="#181818" points="341.5,498.252,351.5,502.252,341.5,506.252,345.5,502.252" style="stroke:#181818;stroke-width:1.0;"/><line style="stroke:#181818;stroke-width:1.0;" x1="380.5" x2="380.5" y1="470.252" y2="475.252"/><line style="stroke:#181818;stroke-width:1.0;" x1="380.5" x2="258" y1="475.252" y2="475.252"/><line style="stroke:#181818;stroke-width:1.0;" x1="258" x2="258" y1="475.252" y2="490.252"/><polygon fill="#181818" points="254,480.252,258,490.252,262,480.252,258,484.252" style="stroke:#181818;stroke-width:1.0;"/><line style="stroke:#181818;stroke-width:1.0;" x1="526.5" x2="561.5" y1="502.252" y2="502.252"/><line style="stroke:#181818;stroke-width:1.0;" x1="561.5" x2="561.5" y1="502.252" y2="533.1699"/><polygon fill="#181818" points="557.5,523.1699,561.5,533.1699,565.5,523.1699,561.5,527.1699" style="stroke:#181818;stroke-width:1.0;"/><line style="stroke:#181818;stroke-width:1.0;" x1="258" x2="439" y1="575.1699" y2="575.1699"/><line style="stroke:#181818;stroke-width:1.0;" x1="380.5" x2="380.5" y1="575.1699" y2="595.1699"/><polygon fill="#181818" points="376.5,585.1699,380.5,595.1699,384.5,585.1699,380.5,589.1699" style="stroke:#181818;stroke-width:1.0;"/><line style="stroke:#181818;stroke-width:1.0;" x1="380.5" x2="380.5" y1="74" y2="94"/><polygon fill="#181818" points="376.5,84,380.5,94,384.5,84,380.5,88" style="stroke:#181818;stroke-width:1.0;"/><line style="stroke:#181818;stroke-width:1.0;" x1="380.5" x2="380.5" y1="630.2637" y2="678.2637"/><line style="stroke:#181818;stroke-width:1.0;" x1="380.5" x2="753" y1="678.2637" y2="678.2637"/><polygon fill="#181818" points="749,395.1582,753,385.1582,757,395.1582,753,391.1582" style="stroke:#181818;stroke-width:1.0;"/><line style="stroke:#181818;stroke-width:1.0;" x1="753" x2="753" y1="62" y2="678.2637"/><line style="stroke:#181818;stroke-width:1.0;" x1="753" x2="392.5" y1="62" y2="62"/><polygon fill="#181818" points="402.5,58,392.5,62,402.5,66,398.5,62" style="stroke:#181818;stroke-width:1.0;"/><line style="stroke:#181818;stroke-width:1.0;" x1="380.5" x2="380.5" y1="30" y2="50"/><polygon fill="#181818" points="376.5,40,380.5,50,384.5,40,380.5,44" style="stroke:#181818;stroke-width:1.0;"/><!--MD5=[c3d7aa564125eca7928094285231f93b]
@startuml ../../static/img/docs/workflows/unit-admission
skinparam defaultTextAlignment center

start

repeat
  #yellow:Unit added or modified]
  if (spec.serviceAccountName exists?) then (no)
  elseif (spec.schedule is a valid RRule?) then (no)
  elseif (status.phase == Accepted) then (no)
  else (yes)
    #palegreen:Store in Cache>
    #palegreen:Reconcile pipelines>
    #palegreen:Schedule workers>
    stop
  endif
  #pink:update status.failureReasons|
  if (status.phase == Rejected) then (no)
  elseif (status.failureReasons changed) then (yes)
  else (no)
    stop
  endif
  #pink:update status.phase|
@enduml

PlantUML version 1.2022.3(Tue Mar 29 18:10:57 CEST 2022)
(GPL source distribution)
Java Runtime: OpenJDK Runtime Environment
JVM: OpenJDK 64-Bit Server VM
Default Encoding: UTF-8
Language: fr
Country: FR
--></g></svg>