<?xml version="1.0" encoding="UTF-8" standalone="no"?><svg xmlns="http://www.w3.org/2000/svg" xmlns:xlink="http://www.w3.org/1999/xlink" contentStyleType="text/css" height="639px" preserveAspectRatio="none" style="width:358px;height:639px;background:#FFFFFF;" version="1.1" viewBox="0 0 358 639" width="358px" zoomAndPan="magnify"><defs/><g><ellipse cx="179" cy="20" fill="#222222" rx="10" ry="10" style="stroke:#222222;stroke-width:1.0;"/><rect fill="none" height="194.8906" style="stroke:#000000;stroke-width:1.5;" width="137" x="111.5" y="40"/><path d="M180.5,40 L180.5,50.6094 L170.5,60.6094 L111.5,60.6094 " fill="none" style="stroke:#000000;stroke-width:1.5;"/><text fill="#000000" font-family="sans-serif" font-size="14" lengthAdjust="spacing" textLength="59" x="114.5" y="55.5332">Unit Task</text><rect fill="#F1F1F1" height="35.0938" style="stroke:#181818;stroke-width:0.5;" width="101" x="128.5" y="77.6094"/><text fill="#000000" font-family="sans-serif" font-size="12" lengthAdjust="spacing" textLength="81" x="138.5" y="100.0664">Run Unit script</text><rect fill="#FFC0CB" height="35.0938" style="stroke:#181818;stroke-width:0.5;" width="115" x="121.5" y="132.7031"/><line style="stroke:#181818;stroke-width:0.5;" x1="126.5" x2="126.5" y1="132.7031" y2="167.7969"/><line style="stroke:#181818;stroke-width:0.5;" x1="231.5" x2="231.5" y1="132.7031" y2="167.7969"/><text fill="#000000" font-family="sans-serif" font-size="12" lengthAdjust="spacing" textLength="95" x="131.5" y="155.1602">Capture exit code</text><polygon fill="#98FB98" points="129.5,187.7969,228.5,187.7969,238.5,205.3438,228.5,222.8906,129.5,222.8906" style="stroke:#181818;stroke-width:0.5;"/><text fill="#000000" font-family="sans-serif" font-size="12" lengthAdjust="spacing" textLength="79" x="144.5" y="210.2539">Save Unit logs</text><rect fill="#555555" height="6" rx="2.5" ry="2.5" style="stroke:#555555;stroke-width:1.0;" width="336" x="11" y="254.8906"/><rect fill="none" height="139.7969" style="stroke:#000000;stroke-width:1.5;" width="142" x="23" y="270.8906"/><path d="M131,270.8906 L131,281.5 L121,291.5 L23,291.5 " fill="none" style="stroke:#000000;stroke-width:1.5;"/><text fill="#000000" font-family="sans-serif" font-size="14" lengthAdjust="spacing" textLength="98" x="26" y="286.4238">Reactor A Task</text><polygon fill="#98FB98" points="43,308.5,155,308.5,145,326.0469,155,343.5938,43,343.5938" style="stroke:#181818;stroke-width:0.5;"/><text fill="#000000" font-family="sans-serif" font-size="12" lengthAdjust="spacing" textLength="82" x="58" y="330.957">Fetch Unit logs</text><rect fill="#F1F1F1" height="35.0938" style="stroke:#181818;stroke-width:0.5;" width="122" x="33" y="363.5938"/><text fill="#000000" font-family="sans-serif" font-size="12" lengthAdjust="spacing" textLength="102" x="43" y="386.0508">Run Reactor script</text><rect fill="none" height="139.7969" style="stroke:#000000;stroke-width:1.5;" width="142" x="193" y="270.8906"/><path d="M301,270.8906 L301,281.5 L291,291.5 L193,291.5 " fill="none" style="stroke:#000000;stroke-width:1.5;"/><text fill="#000000" font-family="sans-serif" font-size="14" lengthAdjust="spacing" textLength="98" x="196" y="286.4238">Reactor B Task</text><polygon fill="#98FB98" points="213,308.5,325,308.5,315,326.0469,325,343.5938,213,343.5938" style="stroke:#181818;stroke-width:0.5;"/><text fill="#000000" font-family="sans-serif" font-size="12" lengthAdjust="spacing" textLength="82" x="228" y="330.957">Fetch Unit logs</text><rect fill="#F1F1F1" height="35.0938" style="stroke:#181818;stroke-width:0.5;" width="122" x="203" y="363.5938"/><text fill="#000000" font-family="sans-serif" font-size="12" lengthAdjust="spacing" textLength="102" x="213" y="386.0508">Run Reactor script</text><rect fill="#555555" height="6" rx="2.5" ry="2.5" style="stroke:#555555;stroke-width:1.0;" width="336" x="11" y="430.6875"/><rect fill="none" height="139.7969" style="stroke:#000000;stroke-width:1.5;" width="153" x="102.5" y="446.6875"/><path d="M187.5,446.6875 L187.5,457.2969 L177.5,467.2969 L102.5,467.2969 " fill="none" style="stroke:#000000;stroke-width:1.5;"/><text fill="#000000" font-family="sans-serif" font-size="14" lengthAdjust="spacing" textLength="75" x="105.5" y="462.2207">Status Task</text><rect fill="#98FB98" height="35.0938" style="stroke:#181818;stroke-width:0.5;" width="105" x="126.5" y="484.2969"/><line style="stroke:#181818;stroke-width:0.5;" x1="131.5" x2="131.5" y1="484.2969" y2="519.3906"/><line style="stroke:#181818;stroke-width:0.5;" x1="226.5" x2="226.5" y1="484.2969" y2="519.3906"/><text fill="#000000" font-family="sans-serif" font-size="12" lengthAdjust="spacing" textLength="85" x="136.5" y="506.7539">Purge Unit logs</text><rect fill="#FFC0CB" height="35.0938" style="stroke:#181818;stroke-width:0.5;" width="133" x="112.5" y="539.3906"/><line style="stroke:#181818;stroke-width:0.5;" x1="117.5" x2="117.5" y1="539.3906" y2="574.4844"/><line style="stroke:#181818;stroke-width:0.5;" x1="240.5" x2="240.5" y1="539.3906" y2="574.4844"/><text fill="#000000" font-family="sans-serif" font-size="12" lengthAdjust="spacing" textLength="113" x="122.5" y="561.8477">Return with exit code</text><ellipse cx="179" cy="617.4844" rx="11" ry="11" style="stroke:#222222;stroke-width:1.0;fill:none;"/><ellipse cx="179" cy="617.4844" fill="#222222" rx="6" ry="6" style="stroke:#111111;stroke-width:1.0;"/><line style="stroke:#181818;stroke-width:1.0;" x1="179" x2="179" y1="112.7031" y2="132.7031"/><polygon fill="#181818" points="175,122.7031,179,132.7031,183,122.7031,179,126.7031" style="stroke:#181818;stroke-width:1.0;"/><line style="stroke:#181818;stroke-width:1.0;" x1="179" x2="179" y1="167.7969" y2="187.7969"/><polygon fill="#181818" points="175,177.7969,179,187.7969,183,177.7969,179,181.7969" style="stroke:#181818;stroke-width:1.0;"/><line style="stroke:#181818;stroke-width:1.0;" x1="179" x2="179" y1="30" y2="77.6094"/><polygon fill="#181818" points="175,67.6094,179,77.6094,183,67.6094,179,71.6094" style="stroke:#181818;stroke-width:1.0;"/><line style="stroke:#181818;stroke-width:1.0;" x1="94" x2="94" y1="343.5938" y2="363.5938"/><polygon fill="#181818" points="90,353.5938,94,363.5938,98,353.5938,94,357.5938" style="stroke:#181818;stroke-width:1.0;"/><line style="stroke:#181818;stroke-width:1.0;" x1="264" x2="264" y1="343.5938" y2="363.5938"/><polygon fill="#181818" points="260,353.5938,264,363.5938,268,353.5938,264,357.5938" style="stroke:#181818;stroke-width:1.0;"/><line style="stroke:#181818;stroke-width:1.0;" x1="94" x2="94" y1="260.8906" y2="308.5"/><polygon fill="#181818" points="90,298.5,94,308.5,98,298.5,94,302.5" style="stroke:#181818;stroke-width:1.0;"/><line style="stroke:#181818;stroke-width:1.0;" x1="264" x2="264" y1="260.8906" y2="308.5"/><polygon fill="#181818" points="260,298.5,264,308.5,268,298.5,264,302.5" style="stroke:#181818;stroke-width:1.0;"/><line style="stroke:#181818;stroke-width:1.0;" x1="94" x2="94" y1="398.6875" y2="430.6875"/><polygon fill="#181818" points="90,420.6875,94,430.6875,98,420.6875,94,424.6875" style="stroke:#181818;stroke-width:1.0;"/><line style="stroke:#181818;stroke-width:1.0;" x1="264" x2="264" y1="398.6875" y2="430.6875"/><polygon fill="#181818" points="260,420.6875,264,430.6875,268,420.6875,264,424.6875" style="stroke:#181818;stroke-width:1.0;"/><line style="stroke:#181818;stroke-width:1.0;" x1="179" x2="179" y1="222.8906" y2="254.8906"/><polygon fill="#181818" points="175,244.8906,179,254.8906,183,244.8906,179,248.8906" style="stroke:#181818;stroke-width:1.0;"/><line style="stroke:#181818;stroke-width:1.0;" x1="179" x2="179" y1="519.3906" y2="539.3906"/><polygon fill="#181818" points="175,529.3906,179,539.3906,183,529.3906,179,533.3906" style="stroke:#181818;stroke-width:1.0;"/><line style="stroke:#181818;stroke-width:1.0;" x1="179" x2="179" y1="436.6875" y2="484.2969"/><polygon fill="#181818" points="175,474.2969,179,484.2969,183,474.2969,179,478.2969" style="stroke:#181818;stroke-width:1.0;"/><line style="stroke:#181818;stroke-width:1.0;" x1="179" x2="179" y1="574.4844" y2="606.4844"/><polygon fill="#181818" points="175,596.4844,179,606.4844,183,596.4844,179,600.4844" style="stroke:#181818;stroke-width:1.0;"/><!--MD5=[439a4a800903e0184de8c947d3450746]
@startuml ../../static/img/docs/workflows/unit-pipeline
skinparam defaultTextAlignment center

start

group Unit Task
  :Run Unit script]
  #pink:Capture exit code|
  #palegreen:Save Unit logs>
end group

fork
  group Reactor A Task
    #palegreen:Fetch Unit logs<
    :Run Reactor script]
  end group
fork again
  group Reactor B Task
    #palegreen:Fetch Unit logs<
    :Run Reactor script]
  end group
end fork

group Status Task
  #palegreen:Purge Unit logs|
  #pink:Return with exit code|
end group

stop

@enduml

PlantUML version 1.2022.3(Tue Mar 29 18:10:57 CEST 2022)
(GPL source distribution)
Java Runtime: OpenJDK Runtime Environment
JVM: OpenJDK 64-Bit Server VM
Default Encoding: UTF-8
Language: fr
Country: FR
--></g></svg>