<svg width="428" height="399" viewBox="0 0 428 399" fill="none" xmlns="http://www.w3.org/2000/svg">
<g clip-path="url(#clip0)">
<g opacity="0.6">
<path opacity="0.3" d="M158.399 144.857V194.602L201.486 219.465L244.564 194.602V144.857L201.486 119.985L158.399 144.857Z" stroke="white" stroke-miterlimit="10"/>
<path opacity="0.3" d="M201.486 219.161V268.906L244.564 293.779L287.651 268.906V219.161L244.564 194.298L201.486 219.161Z" stroke="white" stroke-miterlimit="10"/>
<path opacity="0.3" d="M287.651 268.897V318.642L330.729 343.514L373.816 318.642V268.897L330.729 244.034L287.651 268.897Z" stroke="white" stroke-miterlimit="10"/>
<path opacity="0.3" d="M287.651 169.426V219.161L330.729 244.034L373.816 219.161V169.426L330.729 144.553L287.651 169.426Z" stroke="white" stroke-miterlimit="10"/>
<path opacity="0.3" d="M330.729 244.338V294.083L373.816 318.955L416.894 294.083V244.338L373.816 219.465L330.729 244.338Z" stroke="white" stroke-miterlimit="10"/>
<path opacity="0.3" d="M373.816 268.897V318.642L416.894 343.514L459.981 318.642V268.897L416.894 244.034L373.816 268.897Z" stroke="white" stroke-miterlimit="10"/>
<path opacity="0.3" d="M330.729 194.602V244.338L373.816 269.21L416.894 244.338V194.602L373.816 169.73L330.729 194.602Z" stroke="white" stroke-miterlimit="10"/>
<path opacity="0.3" d="M158.399 343.219V392.955L201.486 417.827L244.564 392.955V343.219L201.486 318.347L158.399 343.219Z" stroke="white" stroke-miterlimit="10"/>
<path opacity="0.3" d="M201.486 318.642V368.387L244.564 393.259L287.651 368.387V318.642L244.564 293.769L201.486 318.642Z" stroke="white" stroke-miterlimit="10"/>
<path opacity="0.3" d="M244.564 343.828V393.563L287.651 418.436L330.729 393.563V343.828L287.651 318.955L244.564 343.828Z" stroke="white" stroke-miterlimit="10"/>
<path opacity="0.3" d="M244.564 244.338V294.083L287.651 318.955L330.729 294.083V244.338L287.651 219.465L244.564 244.338Z" stroke="white" stroke-miterlimit="10"/>
<path opacity="0.3" d="M373.816 169.426V219.161L416.894 244.034L459.981 219.161V169.426L416.894 144.553L373.816 169.426Z" stroke="white" stroke-miterlimit="10"/>
<path opacity="0.3" d="M416.894 144.857V194.602L459.981 219.465L503.059 194.602V144.857L459.981 119.985L416.894 144.857Z" stroke="white" stroke-miterlimit="10"/>
<path opacity="0.3" d="M201.486 119.681V169.426L244.564 194.298L287.651 169.426V119.681L244.564 94.8084L201.486 119.681Z" stroke="white" stroke-miterlimit="10"/>
<path opacity="0.3" d="M287.651 119.681V169.426L330.729 194.298L373.816 169.426V119.681L330.729 94.8084L287.651 119.681Z" stroke="white" stroke-miterlimit="10"/>
<path opacity="0.3" d="M115.321 69.936L115.321 119.681L158.399 144.553L201.486 119.681V69.936L158.399 45.0728L115.321 69.936Z" stroke="white" stroke-miterlimit="10"/>
<path opacity="0.3" d="M158.399 45.3769V95.1125L201.486 119.985L244.564 95.1125V45.3769L201.486 20.5045L158.399 45.3769Z" stroke="white" stroke-miterlimit="10"/>
<path opacity="0.3" d="M115.321 169.426L115.321 219.161L158.399 244.034L201.486 219.161V169.426L158.399 144.553L115.321 169.426Z" stroke="white" stroke-miterlimit="10"/>
<path opacity="0.3" d="M72.2335 244.338L72.2335 294.083L115.321 318.955L158.399 294.083V244.338L115.321 219.465L72.2335 244.338Z" stroke="white" stroke-miterlimit="10"/>
<path opacity="0.3" d="M115.321 219.161L115.321 268.906L158.399 293.779L201.486 268.906V219.161L158.399 194.298L115.321 219.161Z" stroke="white" stroke-miterlimit="10"/>
<path opacity="0.3" d="M201.486 69.936V119.681L244.564 144.553L287.651 119.681V69.936L244.564 45.0728L201.486 69.936Z" stroke="white" stroke-miterlimit="10"/>
</g>
</g>
<defs>
<clipPath id="clip0">
<rect x="561" y="399" width="561" height="399" transform="rotate(-180 561 399)" fill="white"/>
</clipPath>
</defs>
</svg>
