<svg width="95" height="146" viewBox="0 0 95 146" fill="none" xmlns="http://www.w3.org/2000/svg">
<path fill-rule="evenodd" clip-rule="evenodd" d="M63.3328 72.1318L94.9999 90.2301V127.005L62.8366 145.386L30.6666 127.005V90.1174H32.6666V125.844L62.8365 143.083L92.9999 125.844V91.3906L62.3404 73.8683L63.3328 72.1318Z" fill="#FF847C"/>
<path fill-rule="evenodd" clip-rule="evenodd" d="M62.8366 0.848267L94.9999 19.23V56.0046L63.3328 74.1028L62.3404 72.3663L92.9999 54.844V20.3906L62.8365 3.15179L32.6666 20.3907V56.2972H30.6666V19.23L62.8366 0.848267Z" fill="#E84A5F"/>
<path fill-rule="evenodd" clip-rule="evenodd" d="M32.17 18.231L64.3333 36.6127V73.3872L32.17 91.769L0 73.3873V36.6127L32.17 18.231ZM2 37.7733V72.2266L32.1699 89.4655L62.3333 72.2267V37.7733L32.1699 20.5345L2 37.7733Z" fill="#6C7B95"/>
<path fill-rule="evenodd" clip-rule="evenodd" d="M32.17 54.231L64.3333 72.6127V109.387L32.17 127.769L0 109.387V72.6127L32.17 54.231ZM2 73.7733V108.227L32.1699 125.465L62.3333 108.227V73.7733L32.1699 56.5345L2 73.7733Z" fill="#68B5B7"/>
</svg>
